<svg width="16" height="16" viewBox="0 0 16 16" fill="none" xmlns="http://www.w3.org/2000/svg">
<g clip-path="url(#clip0_0_5242)">
<path fill-rule="evenodd" clip-rule="evenodd" d="M10.7117 6.94076C11.4099 7.47441 11.4099 8.5258 10.7117 9.05946L7.65841 11.3931C6.78101 12.0637 5.51541 11.438 5.51541 10.3337V5.66648C5.51541 4.56217 6.78101 3.93654 7.65841 4.60713L10.7117 6.94076ZM9.90204 8.00011L6.84875 5.66648L6.84875 10.3337L9.90204 8.00011Z" fill="#FF3F3A"/>
<path fill-rule="evenodd" clip-rule="evenodd" d="M7.99984 2.00008C4.68613 2.00008 1.99984 4.68637 1.99984 8.00008C1.99984 11.3138 4.68613 14.0001 7.99984 14.0001C11.3135 14.0001 13.9998 11.3138 13.9998 8.00008C13.9998 4.68637 11.3135 2.00008 7.99984 2.00008ZM0.666504 8.00008C0.666504 3.94999 3.94975 0.666748 7.99984 0.666748C12.0499 0.666748 15.3332 3.94999 15.3332 8.00008C15.3332 12.0502 12.0499 15.3334 7.99984 15.3334C3.94975 15.3334 0.666504 12.0502 0.666504 8.00008Z" fill="#FF3F3A"/>
</g>
<defs>
<clipPath id="clip0_0_5242">
<rect width="16" height="16" fill="white"/>
</clipPath>
</defs>
</svg>
