<svg width="16" height="16" viewBox="0 0 16 16" fill="none" xmlns="http://www.w3.org/2000/svg">
<path fill-rule="evenodd" clip-rule="evenodd" d="M8.00006 2.16659C6.71139 2.16659 5.66672 3.21125 5.66672 4.49992C5.66672 5.78858 6.71139 6.83325 8.00006 6.83325C9.28872 6.83325 10.3334 5.78858 10.3334 4.49992C10.3334 3.21125 9.28872 2.16659 8.00006 2.16659ZM4.33339 4.49992C4.33339 2.47487 5.97501 0.833252 8.00006 0.833252C10.0251 0.833252 11.6667 2.47487 11.6667 4.49992C11.6667 6.52496 10.0251 8.16659 8.00006 8.16659C5.97501 8.16659 4.33339 6.52496 4.33339 4.49992Z" fill="#FF3F3A"/>
<path fill-rule="evenodd" clip-rule="evenodd" d="M4.06943 10.1666C3.60722 10.1666 3.24595 10.3916 3.0993 10.715C2.89632 11.1625 2.71252 11.6954 2.66915 12.2007C2.64976 12.4266 2.74395 12.5931 2.87374 12.6737C3.55984 13.0999 5.14965 13.8333 8.00006 13.8333C10.8505 13.8333 12.4403 13.0999 13.1264 12.6737C13.2562 12.5931 13.3504 12.4266 13.331 12.2007C13.2876 11.6954 13.1038 11.1625 12.9008 10.715C12.7542 10.3916 12.3929 10.1666 11.9307 10.1666H4.06943ZM1.88501 10.1643C2.29031 9.27063 3.19533 8.83325 4.06943 8.83325H11.9307C12.8048 8.83325 13.7098 9.27063 14.1151 10.1643C14.3479 10.6776 14.5977 11.3676 14.6594 12.0867C14.7156 12.7415 14.4435 13.4252 13.83 13.8063C12.9276 14.3668 11.0931 15.1666 8.00006 15.1666C4.90699 15.1666 3.07253 14.3668 2.17017 13.8063C1.55666 13.4252 1.2845 12.7415 1.3407 12.0867C1.40242 11.3676 1.65222 10.6776 1.88501 10.1643Z" fill="#FF3F3A"/>
</svg>
