<svg width="16" height="16" viewBox="0 0 16 16" fill="none" xmlns="http://www.w3.org/2000/svg">
<path fill-rule="evenodd" clip-rule="evenodd" d="M6.77932 1.46758C7.24248 0.39948 8.75719 0.399478 9.22036 1.46758L10.6214 4.69858L14.1273 5.03265C15.2862 5.14308 15.7543 6.58366 14.8816 7.35422L12.2417 9.68515L13.0073 13.1226C13.2604 14.259 12.035 15.1493 11.0325 14.5574L7.99984 12.767L4.96721 14.5574C3.96469 15.1493 2.73926 14.259 2.99236 13.1226L3.75801 9.68515L1.11809 7.35422C0.245398 6.58366 0.71347 5.14308 1.87242 5.03265L5.37824 4.69858L6.77932 1.46758ZM9.40091 5.22784L7.99984 1.99684L6.59876 5.22784C6.406 5.67238 5.98678 5.97695 5.50444 6.02292L1.99861 6.35698L4.63852 8.68792C5.00174 9.00862 5.16186 9.50144 5.05652 9.97438L4.29088 13.4118L7.32351 11.6214C7.74075 11.3751 8.25893 11.3751 8.67617 11.6214L11.7088 13.4118L10.9432 9.97438C10.8378 9.50144 10.9979 9.00862 11.3612 8.68792L14.0011 6.35698L10.4952 6.02292C10.0129 5.97695 9.59368 5.67238 9.40091 5.22784Z" fill="#FF3F3A"/>
</svg>
